<?xml version="1.0" encoding="UTF-8"?>
<svg version="1.1" xmlns="http://www.w3.org/2000/svg" width="383" height="351">
<path d="M0 0 C126.39 0 252.78 0 383 0 C383 115.83 383 231.66 383 351 C256.61 351 130.22 351 0 351 C0 235.17 0 119.34 0 0 Z " fill="#FBEF05" transform="translate(0,0)"/>
<path d="M0 0 C126.39 0 252.78 0 383 0 C383 115.83 383 231.66 383 351 C256.61 351 130.22 351 0 351 C0 235.17 0 119.34 0 0 Z M18 20 C18 112.73 18 205.46 18 301 C133.17 301 248.34 301 367 301 C367 208.27 367 115.54 367 20 C251.83 20 136.66 20 18 20 Z " fill="#F8F8FA" transform="translate(0,0)"/>
<path d="M0 0 C114.51 0 229.02 0 347 0 C347 8.91 347 17.82 347 27 C232.49 27 117.98 27 0 27 C0 18.09 0 9.18 0 0 Z " fill="#323393" transform="translate(19,305)"/>
<path d="M0 0 C7.19681747 2.922725 10.90145332 11.52261597 14.5 18 C15.0053125 18.9075 15.510625 19.815 16.03125 20.75 C18.40406606 28.71041518 15.69224824 35.82561022 12.0625 42.9375 C11.66208496 43.75178467 11.26166992 44.56606934 10.84912109 45.4050293 C7.63822203 51.88223069 4.27248894 58.28182201 0.87329102 64.66186523 C-2.35435192 70.72492649 -5.44720344 76.84725944 -8.5 83 C-12.22912811 90.50498389 -16.04377439 97.95411907 -19.96679688 105.359375 C-23.68588107 112.38494854 -27.34982824 119.43841178 -31 126.5 C-31.31104675 127.10155914 -31.62209351 127.70311829 -31.94256592 128.32290649 C-35.8554115 135.8919745 -39.75591262 143.46733806 -43.6484375 151.046875 C-44.04194397 151.81290039 -44.43545044 152.57892578 -44.84088135 153.36816406 C-46.7521987 157.08907353 -48.66240217 160.81054551 -50.5703125 164.53320312 C-55.63235024 174.399483 -60.79595457 184.2077725 -66 194 C-76.89 194 -87.78 194 -99 194 C-98.10677039 189.53385194 -96.79035148 185.81873542 -94.95703125 181.70703125 C-94.49330864 180.65851738 -94.49330864 180.65851738 -94.0202179 179.58882141 C-90.53241307 171.8056567 -86.63484594 164.2448949 -82.6875 156.6875 C-81.92897119 155.22611423 -81.17083777 153.76452317 -80.41308594 152.30273438 C-75.79236955 143.39824048 -71.13738582 134.51162864 -66.4453125 125.64453125 C-64.58899236 122.1301762 -62.75567667 118.60442707 -60.9296875 115.07421875 C-55.24587212 104.08664013 -49.48405206 93.15646399 -43.52441406 82.31591797 C-38.01590558 72.26406701 -32.76941387 62.07822631 -27.50341797 51.89794922 C-24.94270944 46.96199432 -22.34676009 42.04476496 -19.75097656 37.12719727 C-17.43975199 32.74499136 -15.14162778 28.35628045 -12.85546875 23.9609375 C-12.31865479 22.9292041 -11.78184082 21.8974707 -11.22875977 20.83447266 C-10.18767153 18.83217264 -9.14772761 16.82927708 -8.10913086 14.82568359 C-5.50605825 9.8200792 -2.8412583 4.87457585 0 0 Z " fill="#08ADE9" transform="translate(142,81)"/>
<path d="M0 0 C57.09 0 114.18 0 173 0 C171.9474977 4.21000919 170.41201278 8.07013312 168.75 12.0625 C168.46253906 12.76310547 168.17507813 13.46371094 167.87890625 14.18554688 C165.39129394 20.19818187 162.69703238 26.06652876 160 32 C102.91 32 45.82 32 -13 32 C-10 22 -10 22 0 0 Z " fill="#05AEE8" transform="translate(171,200)"/>
<path d="M0 0 C10.56 0 21.12 0 32 0 C33.77375 3.568125 35.5475 7.13625 37.375 10.8125 C41.11547177 18.30963387 44.88933838 25.78418127 48.8125 33.1875 C53.01848987 41.12554111 57.1812663 49.08531793 61.3125 57.0625 C61.79178955 57.98786057 61.79178955 57.98786057 62.28076172 58.93191528 C67.42191314 68.86699616 72.44628225 78.85695391 77.42797852 88.87304688 C82.92061864 99.89406544 88.667713 110.77216197 94.4765625 121.62890625 C105 141.32786856 105 141.32786856 105 147 C95.43 147 85.86 147 76 147 C68.45190557 133.0832009 60.99073952 119.14054302 53.75 105.0625 C53.4082373 104.39840118 53.06647461 103.73430237 52.71435547 103.05007935 C51.37371523 100.444968 50.03339036 97.83969472 48.69348145 95.23420715 C41.75466174 81.74304073 34.58278079 68.40477373 27.21807861 55.14160156 C20.41131862 42.87180178 13.93663159 30.44954889 7.54980469 17.95605469 C5.49417777 14.03520863 3.30568677 10.19327287 1.08837891 6.36181641 C0 4 0 4 0 0 Z " fill="#35358F" transform="translate(137,38)"/>
<path d="M0 0 C1.32 0 2.64 0 4 0 C5.53979492 1.78833008 5.53979492 1.78833008 6.98046875 4.26953125 C7.50447266 5.15833984 8.02847656 6.04714844 8.56835938 6.96289062 C9.36983398 8.37344727 9.36983398 8.37344727 10.1875 9.8125 C10.73341797 10.74126953 11.27933594 11.67003906 11.84179688 12.62695312 C15.73068162 19.3011853 17.86510165 24.18900974 17 32 C16.03373252 35.1942218 14.5092703 38.0308537 13 41 C12.17136223 42.66209763 11.34279214 44.32422919 10.51504517 45.98677063 C5.44857364 56.15440892 0.29041401 66.27475276 -4.88085938 76.3894043 C-6.36724249 79.29732342 -7.8516454 82.2062475 -9.3359375 85.11523438 C-13.92307638 94.09583601 -18.53898855 103.05839175 -23.25390625 111.97265625 C-27.48033985 119.96425884 -31.55536931 128.02159222 -35.5625 136.125 C-36.76982215 138.5662694 -37.97984998 141.00613513 -39.19140625 143.4453125 C-39.70904541 144.49219238 -40.22668457 145.53907227 -40.76000977 146.61767578 C-42 149 -42 149 -43 150 C-45.44830426 150.08843793 -47.86820599 150.11528752 -50.31640625 150.09765625 C-51.04746078 150.0962413 -51.77851532 150.09482635 -52.53172302 150.09336853 C-54.87535632 150.08775408 -57.21889539 150.07519922 -59.5625 150.0625 C-61.14778508 150.05748686 -62.73307166 150.05292363 -64.31835938 150.04882812 C-68.2122761 150.03777997 -72.10612205 150.02050572 -76 150 C-71.26416155 139.18889404 -66.3441925 128.49401227 -61.0625 117.9375 C-60.6097168 117.03128906 -60.15693359 116.12507813 -59.69042969 115.19140625 C-56.62232224 109.10209779 -53.4610775 103.06447075 -50.27734375 97.03515625 C-44.92751305 86.90278724 -39.70618482 76.7067359 -34.5 66.5 C-28.11444024 53.98109713 -21.661501 41.50259281 -15.09594727 29.0770874 C-12.54764652 24.24743588 -10.0245432 19.404601 -7.5 14.5625 C-6.98953125 13.58474609 -6.4790625 12.60699219 -5.953125 11.59960938 C-5.46328125 10.66052734 -4.9734375 9.72144531 -4.46875 8.75390625 C-4.04013672 7.93220947 -3.61152344 7.1105127 -3.16992188 6.26391602 C-2.0953282 4.18446961 -1.04112179 2.09636965 0 0 Z " fill="#08AEE8" transform="translate(165,125)"/>
<path d="M0 0 C10.89 0 21.78 0 33 0 C40.36139965 14.11567356 47.66049889 28.24684883 54.75 42.5 C59.50551245 52.05668 64.34476063 61.55828918 69.34765625 70.98828125 C77.6240198 86.59412255 85.78894503 102.26306379 93.4375 118.1875 C93.90406006 119.15526367 94.37062012 120.12302734 94.85131836 121.12011719 C95.27034424 122.0021582 95.68937012 122.88419922 96.12109375 123.79296875 C96.66914673 124.94575317 96.66914673 124.94575317 97.22827148 126.12182617 C98 128 98 128 98 130 C87.11 130 76.22 130 65 130 C55.67796509 112.17544974 46.58157718 94.25591653 37.63793945 76.23876953 C32.26330278 65.4271971 26.73838299 54.70749216 21.08056641 44.04150391 C19.60165539 41.2474113 18.13923108 38.44487497 16.6796875 35.640625 C16.21079102 34.73997314 15.74189453 33.83932129 15.25878906 32.91137695 C14.29408688 31.05601025 13.32993679 29.20035644 12.36621094 27.34448242 C10.10107377 22.99128602 7.82319112 18.6490593 5.4609375 14.34765625 C5.08340332 13.65704102 4.70586914 12.96642578 4.31689453 12.25488281 C3.32762634 10.45382612 2.32829713 8.65830561 1.328125 6.86328125 C0 4 0 4 0 0 Z " fill="#34348F" transform="translate(193,55)"/>
<path d="M0 0 C1.52234111 0.00691345 1.52234111 0.00691345 3.07543659 0.01396656 C4.82335247 0.00365658 4.82335247 0.00365658 6.60657978 -0.00686169 C7.88619587 0.01111469 9.16581196 0.02909107 10.48420429 0.04761219 C11.84423489 0.04902244 13.2042693 0.04823114 14.56429768 0.04539967 C18.25854962 0.04396314 21.95199233 0.07338984 25.64605594 0.10826945 C29.50574485 0.13949426 33.36545166 0.1424606 37.22524738 0.14839649 C44.53518235 0.16394645 51.8447441 0.20499014 59.15451461 0.25514394 C67.47601759 0.31100187 75.79753825 0.33851491 84.11918199 0.36362112 C101.23822379 0.41590528 118.35690214 0.50386955 135.47565937 0.61523914 C133.38249565 11.70576162 127.47140585 21.62374619 122.47565937 31.61523914 C76.93565937 31.61523914 31.39565937 31.61523914 -15.52434063 31.61523914 C-14.79303237 27.2273896 -14.30588681 24.65694003 -12.56340313 20.83008289 C-11.97945782 19.53940907 -11.97945782 19.53940907 -11.38371563 18.22266102 C-10.97637188 17.3415868 -10.56902813 16.46051258 -10.14934063 15.55273914 C-9.74973125 14.66779774 -9.35012188 13.78285633 -8.93840313 12.87109852 C-7.82756972 10.43566934 -6.71873259 8.01086408 -5.52434063 5.61523914 C-5.12109916 4.75503068 -4.71785769 3.89482222 -4.30239677 3.00854683 C-2.52434063 0.61523914 -2.52434063 0.61523914 0 0 Z " fill="#01ADEC" transform="translate(151.52434062957764,243.38476085662842)"/>
</svg>
